solid OpenSCAD_Model
  facet normal 1 -0 0
    outer loop
      vertex 82.5 -20.165 1.6
      vertex 82.5 20.165 0
      vertex 82.5 20.165 1.6
    endloop
  endfacet
  facet normal 1 0 0
    outer loop
      vertex 82.5 20.165 0
      vertex 82.5 -20.165 1.6
      vertex 82.5 -20.165 0
    endloop
  endfacet
  facet normal -0.932472 -0.361241 0
    outer loop
      vertex -81.6912 -23.0077 0
      vertex -82.4081 -21.1572 1.6
      vertex -82.4081 -21.1572 0
    endloop
  endfacet
  facet normal -0.932472 -0.361241 0
    outer loop
      vertex -82.4081 -21.1572 1.6
      vertex -81.6912 -23.0077 0
      vertex -81.6912 -23.0077 1.6
    endloop
  endfacet
  facet normal 0.982973 -0.183752 0
    outer loop
      vertex 82.1353 -22.1157 1.6
      vertex 82.5 -20.165 0
      vertex 82.5 -20.165 1.6
    endloop
  endfacet
  facet normal 0.982973 -0.183752 0
    outer loop
      vertex 82.5 -20.165 0
      vertex 82.1353 -22.1157 1.6
      vertex 82.1353 -22.1157 0
    endloop
  endfacet
  facet normal -0.0922681 0.995734 0
    outer loop
      vertex -76.6018 25.542 0
      vertex -78.5778 25.3589 1.6
      vertex -76.6018 25.542 1.6
    endloop
  endfacet
  facet normal -0.0922681 0.995734 0
    outer loop
      vertex -78.5778 25.3589 1.6
      vertex -76.6018 25.542 0
      vertex -78.5778 25.3589 0
    endloop
  endfacet
  facet normal -1 0 0
    outer loop
      vertex -82.4081 -21.1572 0
      vertex -82.4081 21.1572 1.6
      vertex -82.4081 21.1572 0
    endloop
  endfacet
  facet normal -1 -0 0
    outer loop
      vertex -82.4081 21.1572 1.6
      vertex -82.4081 -21.1572 0
      vertex -82.4081 -21.1572 1.6
    endloop
  endfacet
  facet normal 0.273662 -0.961826 0
    outer loop
      vertex 77.5983 -25.542 0
      vertex 79.507 -24.9989 1.6
      vertex 77.5983 -25.542 1.6
    endloop
  endfacet
  facet normal 0.273662 -0.961826 0
    outer loop
      vertex 79.507 -24.9989 1.6
      vertex 77.5983 -25.542 0
      vertex 79.507 -24.9989 0
    endloop
  endfacet
  facet normal 0 0 1
    outer loop
      vertex -82.4081 21.1572 1.6
      vertex -65.12 -4.565 1.6
      vertex -77.451 20.8139 1.6
    endloop
  endfacet
  facet normal 0 0 1
    outer loop
      vertex -65.12 -4.565 1.6
      vertex -77.451 -20.8139 1.6
      vertex -76.76 -21.765 1.6
    endloop
  endfacet
  facet normal -0 0 1
    outer loop
      vertex -82.4081 21.1572 1.6
      vertex -77.451 20.8139 1.6
      vertex -78.569 21.1772 1.6
    endloop
  endfacet
  facet normal 0 0 1
    outer loop
      vertex -82.4081 -21.1572 1.6
      vertex -65.12 -4.565 1.6
      vertex -82.4081 21.1572 1.6
    endloop
  endfacet
  facet normal 0 0 1
    outer loop
      vertex -65.12 -15.565 1.6
      vertex -76.76 -21.765 1.6
      vertex -76.6018 -25.542 1.6
    endloop
  endfacet
  facet normal -0 0 1
    outer loop
      vertex -77.451 -22.7161 1.6
      vertex -76.6018 -25.542 1.6
      vertex -76.76 -21.765 1.6
    endloop
  endfacet
  facet normal 0 0 1
    outer loop
      vertex -78.5778 -25.3589 1.6
      vertex -77.451 -22.7161 1.6
      vertex -78.569 -22.3528 1.6
    endloop
  endfacet
  facet normal 0 0 1
    outer loop
      vertex -77.451 -22.7161 1.6
      vertex -78.5778 -25.3589 1.6
      vertex -76.6018 -25.542 1.6
    endloop
  endfacet
  facet normal 0 0 1
    outer loop
      vertex -77.451 -20.8139 1.6
      vertex -82.4081 -21.1572 1.6
      vertex -78.569 -21.1772 1.6
    endloop
  endfacet
  facet normal 0 0 1
    outer loop
      vertex -82.4081 21.1572 1.6
      vertex -78.5778 25.3589 1.6
      vertex -80.3542 24.4743 1.6
    endloop
  endfacet
  facet normal 0 -0 1
    outer loop
      vertex -81.6912 -23.0077 1.6
      vertex -78.569 -21.1772 1.6
      vertex -82.4081 -21.1572 1.6
    endloop
  endfacet
  facet normal 0 0 1
    outer loop
      vertex -82.4081 21.1572 1.6
      vertex -80.3542 24.4743 1.6
      vertex -81.6912 23.0077 1.6
    endloop
  endfacet
  facet normal 0 0 1
    outer loop
      vertex -78.569 -21.1772 1.6
      vertex -81.6912 -23.0077 1.6
      vertex -78.569 -22.3528 1.6
    endloop
  endfacet
  facet normal 0 0 1
    outer loop
      vertex -78.569 -22.3528 1.6
      vertex -80.3542 -24.4743 1.6
      vertex -78.5778 -25.3589 1.6
    endloop
  endfacet
  facet normal 0 0 1
    outer loop
      vertex -78.569 -22.3528 1.6
      vertex -81.6912 -23.0077 1.6
      vertex -80.3542 -24.4743 1.6
    endloop
  endfacet
  facet normal 0 0 1
    outer loop
      vertex 82.5 20.165 1.6
      vertex 59.05 -2.065 1.6
      vertex 82.5 -20.165 1.6
    endloop
  endfacet
  facet normal 0 0 1
    outer loop
      vertex 82.5 -20.165 1.6
      vertex 78.069 -20.8139 1.6
      vertex 78.76 -21.765 1.6
    endloop
  endfacet
  facet normal 0 0 1
    outer loop
      vertex 59.05 -2.065 1.6
      vertex 78.069 20.8139 1.6
      vertex 76.951 21.1772 1.6
    endloop
  endfacet
  facet normal 0 0 1
    outer loop
      vertex 82.5 -20.165 1.6
      vertex 59.05 -2.065 1.6
      vertex 78.069 -20.8139 1.6
    endloop
  endfacet
  facet normal -0 0 1
    outer loop
      vertex 78.76 21.765 1.6
      vertex 82.5 20.165 1.6
      vertex 82.1353 22.1157 1.6
    endloop
  endfacet
  facet normal -0 0 1
    outer loop
      vertex 78.069 20.8139 1.6
      vertex 82.5 20.165 1.6
      vertex 78.76 21.765 1.6
    endloop
  endfacet
  facet normal 0 0 1
    outer loop
      vertex 78.76 21.765 1.6
      vertex 82.1353 22.1157 1.6
      vertex 81.0906 23.803 1.6
    endloop
  endfacet
  facet normal 0 0 1
    outer loop
      vertex 59.05 -2.065 1.6
      vertex 82.5 20.165 1.6
      vertex 78.069 20.8139 1.6
    endloop
  endfacet
  facet normal 0 0 1
    outer loop
      vertex 78.069 22.7161 1.6
      vertex 81.0906 23.803 1.6
      vertex 79.507 24.9989 1.6
    endloop
  endfacet
  facet normal 0 0 1
    outer loop
      vertex 82.5 -20.165 1.6
      vertex 78.76 -21.765 1.6
      vertex 82.1353 -22.1157 1.6
    endloop
  endfacet
  facet normal 0 0 1
    outer loop
      vertex 82.1353 -22.1157 1.6
      vertex 78.76 -21.765 1.6
      vertex 81.0906 -23.803 1.6
    endloop
  endfacet
  facet normal 0 0 1
    outer loop
      vertex 81.0906 23.803 1.6
      vertex 78.069 22.7161 1.6
      vertex 78.76 21.765 1.6
    endloop
  endfacet
  facet normal 0 0 1
    outer loop
      vertex 77.5983 25.542 1.6
      vertex 78.069 22.7161 1.6
      vertex 79.507 24.9989 1.6
    endloop
  endfacet
  facet normal 0 0 1
    outer loop
      vertex 77.5983 25.542 1.6
      vertex 76.951 22.3528 1.6
      vertex 78.069 22.7161 1.6
    endloop
  endfacet
  facet normal 0 0 1
    outer loop
      vertex 59.05 -2.065 1.6
      vertex 76.951 21.1772 1.6
      vertex 76.951 22.3528 1.6
    endloop
  endfacet
  facet normal 0 0 1
    outer loop
      vertex 78.069 -20.8139 1.6
      vertex 59.05 -2.065 1.6
      vertex 76.951 -21.1772 1.6
    endloop
  endfacet
  facet normal -0 0 1
    outer loop
      vertex 59.05 -15.565 1.6
      vertex 76.951 -21.1772 1.6
      vertex 59.05 -2.065 1.6
    endloop
  endfacet
  facet normal 0 0 1
    outer loop
      vertex 42.55 -2.065 1.6
      vertex 76.951 22.3528 1.6
      vertex 77.5983 25.542 1.6
    endloop
  endfacet
  facet normal 0 0 1
    outer loop
      vertex 76.951 22.3528 1.6
      vertex 42.55 -2.065 1.6
      vertex 59.05 -2.065 1.6
    endloop
  endfacet
  facet normal 0 0 1
    outer loop
      vertex 21.42 -7.565 1.6
      vertex 42.55 -2.065 1.6
      vertex 21.42 8.435 1.6
    endloop
  endfacet
  facet normal 0 0 1
    outer loop
      vertex 77.5983 25.542 1.6
      vertex 21.42 8.435 1.6
      vertex 42.55 -2.065 1.6
    endloop
  endfacet
  facet normal -0 0 1
    outer loop
      vertex -76.6018 25.542 1.6
      vertex 21.42 8.435 1.6
      vertex 77.5983 25.542 1.6
    endloop
  endfacet
  facet normal 0 0 1
    outer loop
      vertex -31.58 8.435 1.6
      vertex -55.12 -4.565 1.6
      vertex -31.58 -7.565 1.6
    endloop
  endfacet
  facet normal 0 0 1
    outer loop
      vertex -76.76 21.765 1.6
      vertex -55.12 -4.565 1.6
      vertex -31.58 8.435 1.6
    endloop
  endfacet
  facet normal 0 0 1
    outer loop
      vertex -55.12 -4.565 1.6
      vertex -76.76 21.765 1.6
      vertex -65.12 -4.565 1.6
    endloop
  endfacet
  facet normal -0 0 1
    outer loop
      vertex -76.76 21.765 1.6
      vertex -31.58 8.435 1.6
      vertex -76.6018 25.542 1.6
    endloop
  endfacet
  facet normal 0 0 1
    outer loop
      vertex 21.42 8.435 1.6
      vertex -76.6018 25.542 1.6
      vertex -31.58 8.435 1.6
    endloop
  endfacet
  facet normal -0 0 1
    outer loop
      vertex 78.069 -22.7161 1.6
      vertex 81.0906 -23.803 1.6
      vertex 78.76 -21.765 1.6
    endloop
  endfacet
  facet normal 0 0 1
    outer loop
      vertex 81.0906 -23.803 1.6
      vertex 78.069 -22.7161 1.6
      vertex 79.507 -24.9989 1.6
    endloop
  endfacet
  facet normal 0 0 1
    outer loop
      vertex 78.069 -22.7161 1.6
      vertex 77.5983 -25.542 1.6
      vertex 79.507 -24.9989 1.6
    endloop
  endfacet
  facet normal 0 0 1
    outer loop
      vertex 76.951 -22.3528 1.6
      vertex 77.5983 -25.542 1.6
      vertex 78.069 -22.7161 1.6
    endloop
  endfacet
  facet normal 0 0 1
    outer loop
      vertex 76.951 -21.1772 1.6
      vertex 59.05 -15.565 1.6
      vertex 76.951 -22.3528 1.6
    endloop
  endfacet
  facet normal 0 0 1
    outer loop
      vertex 76.951 -22.3528 1.6
      vertex 59.05 -15.565 1.6
      vertex 77.5983 -25.542 1.6
    endloop
  endfacet
  facet normal -0 0 1
    outer loop
      vertex 42.55 -15.565 1.6
      vertex 77.5983 -25.542 1.6
      vertex 59.05 -15.565 1.6
    endloop
  endfacet
  facet normal 0 0 1
    outer loop
      vertex 42.55 -2.065 1.6
      vertex 21.42 -7.565 1.6
      vertex 42.55 -15.565 1.6
    endloop
  endfacet
  facet normal -0 0 1
    outer loop
      vertex -31.58 -7.565 1.6
      vertex 42.55 -15.565 1.6
      vertex 21.42 -7.565 1.6
    endloop
  endfacet
  facet normal 0 0 1
    outer loop
      vertex -55.12 -15.565 1.6
      vertex 42.55 -15.565 1.6
      vertex -31.58 -7.565 1.6
    endloop
  endfacet
  facet normal 0 0 1
    outer loop
      vertex -55.12 -15.565 1.6
      vertex -31.58 -7.565 1.6
      vertex -55.12 -4.565 1.6
    endloop
  endfacet
  facet normal 0 0 1
    outer loop
      vertex -76.6018 -25.542 1.6
      vertex 42.55 -15.565 1.6
      vertex -55.12 -15.565 1.6
    endloop
  endfacet
  facet normal 0 0 1
    outer loop
      vertex -76.6018 -25.542 1.6
      vertex -55.12 -15.565 1.6
      vertex -65.12 -15.565 1.6
    endloop
  endfacet
  facet normal 0 0 1
    outer loop
      vertex 42.55 -15.565 1.6
      vertex -76.6018 -25.542 1.6
      vertex 77.5983 -25.542 1.6
    endloop
  endfacet
  facet normal -0 0 1
    outer loop
      vertex -77.451 20.8139 1.6
      vertex -65.12 -4.565 1.6
      vertex -76.76 21.765 1.6
    endloop
  endfacet
  facet normal 0 0 1
    outer loop
      vertex -76.76 -21.765 1.6
      vertex -65.12 -15.565 1.6
      vertex -65.12 -4.565 1.6
    endloop
  endfacet
  facet normal 0 0 1
    outer loop
      vertex -76.6018 25.542 1.6
      vertex -77.451 22.7161 1.6
      vertex -76.76 21.765 1.6
    endloop
  endfacet
  facet normal -0 0 1
    outer loop
      vertex -78.5778 25.3589 1.6
      vertex -77.451 22.7161 1.6
      vertex -76.6018 25.542 1.6
    endloop
  endfacet
  facet normal 0 0 1
    outer loop
      vertex -82.4081 21.1572 1.6
      vertex -78.569 21.1772 1.6
      vertex -78.569 22.3528 1.6
    endloop
  endfacet
  facet normal 0 0 1
    outer loop
      vertex -65.12 -4.565 1.6
      vertex -82.4081 -21.1572 1.6
      vertex -77.451 -20.8139 1.6
    endloop
  endfacet
  facet normal 0 0 1
    outer loop
      vertex -82.4081 21.1572 1.6
      vertex -78.569 22.3528 1.6
      vertex -78.5778 25.3589 1.6
    endloop
  endfacet
  facet normal 0 0 1
    outer loop
      vertex -77.451 22.7161 1.6
      vertex -78.5778 25.3589 1.6
      vertex -78.569 22.3528 1.6
    endloop
  endfacet
  facet normal 0 -1 0
    outer loop
      vertex -76.6018 -25.542 0
      vertex 77.5983 -25.542 1.6
      vertex -76.6018 -25.542 1.6
    endloop
  endfacet
  facet normal 0 -1 -0
    outer loop
      vertex 77.5983 -25.542 1.6
      vertex -76.6018 -25.542 0
      vertex 77.5983 -25.542 0
    endloop
  endfacet
  facet normal 0.850217 -0.526432 0
    outer loop
      vertex 81.0906 -23.803 1.6
      vertex 82.1353 -22.1157 0
      vertex 82.1353 -22.1157 1.6
    endloop
  endfacet
  facet normal 0.850217 -0.526432 0
    outer loop
      vertex 82.1353 -22.1157 0
      vertex 81.0906 -23.803 1.6
      vertex 81.0906 -23.803 0
    endloop
  endfacet
  facet normal 0 1 -0
    outer loop
      vertex 77.5983 25.542 0
      vertex -76.6018 25.542 1.6
      vertex 77.5983 25.542 1.6
    endloop
  endfacet
  facet normal 0 1 0
    outer loop
      vertex -76.6018 25.542 1.6
      vertex 77.5983 25.542 0
      vertex -76.6018 25.542 0
    endloop
  endfacet
  facet normal -0.932472 0.361241 0
    outer loop
      vertex -82.4081 21.1572 0
      vertex -81.6912 23.0077 1.6
      vertex -81.6912 23.0077 0
    endloop
  endfacet
  facet normal -0.932472 0.361241 0
    outer loop
      vertex -81.6912 23.0077 1.6
      vertex -82.4081 21.1572 0
      vertex -82.4081 21.1572 1.6
    endloop
  endfacet
  facet normal 0.602636 -0.798016 0
    outer loop
      vertex 79.507 -24.9989 0
      vertex 81.0906 -23.803 1.6
      vertex 79.507 -24.9989 1.6
    endloop
  endfacet
  facet normal 0.602636 -0.798016 0
    outer loop
      vertex 81.0906 -23.803 1.6
      vertex 79.507 -24.9989 0
      vertex 81.0906 -23.803 0
    endloop
  endfacet
  facet normal 0 0 -1
    outer loop
      vertex -82.4081 -21.1572 0
      vertex -65.12 -4.565 0
      vertex -77.451 -20.8139 0
    endloop
  endfacet
  facet normal 0 0 -1
    outer loop
      vertex -65.12 -4.565 0
      vertex -77.451 20.8139 0
      vertex -76.76 21.765 0
    endloop
  endfacet
  facet normal 0 0 -1
    outer loop
      vertex -82.4081 -21.1572 0
      vertex -77.451 -20.8139 0
      vertex -78.569 -21.1772 0
    endloop
  endfacet
  facet normal 0 0 -1
    outer loop
      vertex -82.4081 21.1572 0
      vertex -65.12 -4.565 0
      vertex -82.4081 -21.1572 0
    endloop
  endfacet
  facet normal 0 0 -1
    outer loop
      vertex -31.58 8.435 0
      vertex -76.76 21.765 0
      vertex -76.6018 25.542 0
    endloop
  endfacet
  facet normal 0 0 -1
    outer loop
      vertex -77.451 22.7161 0
      vertex -76.6018 25.542 0
      vertex -76.76 21.765 0
    endloop
  endfacet
  facet normal 0 0 -1
    outer loop
      vertex -78.5778 25.3589 0
      vertex -77.451 22.7161 0
      vertex -78.569 22.3528 0
    endloop
  endfacet
  facet normal 0 0 -1
    outer loop
      vertex -77.451 22.7161 0
      vertex -78.5778 25.3589 0
      vertex -76.6018 25.542 0
    endloop
  endfacet
  facet normal 0 0 -1
    outer loop
      vertex -77.451 20.8139 0
      vertex -82.4081 21.1572 0
      vertex -78.569 21.1772 0
    endloop
  endfacet
  facet normal 0 0 -1
    outer loop
      vertex -82.4081 -21.1572 0
      vertex -78.5778 -25.3589 0
      vertex -80.3542 -24.4743 0
    endloop
  endfacet
  facet normal 0 -0 -1
    outer loop
      vertex -81.6912 23.0077 0
      vertex -78.569 21.1772 0
      vertex -82.4081 21.1572 0
    endloop
  endfacet
  facet normal 0 0 -1
    outer loop
      vertex -82.4081 -21.1572 0
      vertex -80.3542 -24.4743 0
      vertex -81.6912 -23.0077 0
    endloop
  endfacet
  facet normal 0 0 -1
    outer loop
      vertex -78.569 21.1772 0
      vertex -81.6912 23.0077 0
      vertex -78.569 22.3528 0
    endloop
  endfacet
  facet normal 0 0 -1
    outer loop
      vertex -78.569 22.3528 0
      vertex -80.3542 24.4743 0
      vertex -78.5778 25.3589 0
    endloop
  endfacet
  facet normal 0 0 -1
    outer loop
      vertex -78.569 22.3528 0
      vertex -81.6912 23.0077 0
      vertex -80.3542 24.4743 0
    endloop
  endfacet
  facet normal 0 0 -1
    outer loop
      vertex 82.5 -20.165 0
      vertex 59.05 -2.065 0
      vertex 82.5 20.165 0
    endloop
  endfacet
  facet normal 0 0 -1
    outer loop
      vertex 82.5 20.165 0
      vertex 78.069 20.8139 0
      vertex 78.76 21.765 0
    endloop
  endfacet
  facet normal 0 0 -1
    outer loop
      vertex 59.05 -2.065 0
      vertex 78.069 -20.8139 0
      vertex 76.951 -21.1772 0
    endloop
  endfacet
  facet normal -0 0 -1
    outer loop
      vertex 82.5 20.165 0
      vertex 59.05 -2.065 0
      vertex 78.069 20.8139 0
    endloop
  endfacet
  facet normal 0 0 -1
    outer loop
      vertex 78.76 -21.765 0
      vertex 82.5 -20.165 0
      vertex 82.1353 -22.1157 0
    endloop
  endfacet
  facet normal 0 0 -1
    outer loop
      vertex 78.069 -20.8139 0
      vertex 82.5 -20.165 0
      vertex 78.76 -21.765 0
    endloop
  endfacet
  facet normal 0 0 -1
    outer loop
      vertex 78.76 -21.765 0
      vertex 82.1353 -22.1157 0
      vertex 81.0906 -23.803 0
    endloop
  endfacet
  facet normal 0 0 -1
    outer loop
      vertex 59.05 -2.065 0
      vertex 82.5 -20.165 0
      vertex 78.069 -20.8139 0
    endloop
  endfacet
  facet normal 0 0 -1
    outer loop
      vertex 78.069 -22.7161 0
      vertex 81.0906 -23.803 0
      vertex 79.507 -24.9989 0
    endloop
  endfacet
  facet normal 0 0 -1
    outer loop
      vertex 82.5 20.165 0
      vertex 78.76 21.765 0
      vertex 82.1353 22.1157 0
    endloop
  endfacet
  facet normal -0 0 -1
    outer loop
      vertex 82.1353 22.1157 0
      vertex 78.76 21.765 0
      vertex 81.0906 23.803 0
    endloop
  endfacet
  facet normal 0 0 -1
    outer loop
      vertex 81.0906 -23.803 0
      vertex 78.069 -22.7161 0
      vertex 78.76 -21.765 0
    endloop
  endfacet
  facet normal 0 0 -1
    outer loop
      vertex 77.5983 -25.542 0
      vertex 78.069 -22.7161 0
      vertex 79.507 -24.9989 0
    endloop
  endfacet
  facet normal 0 0 -1
    outer loop
      vertex 77.5983 -25.542 0
      vertex 76.951 -22.3528 0
      vertex 78.069 -22.7161 0
    endloop
  endfacet
  facet normal 0 0 -1
    outer loop
      vertex 59.05 -15.565 0
      vertex 76.951 -21.1772 0
      vertex 76.951 -22.3528 0
    endloop
  endfacet
  facet normal -0 0 -1
    outer loop
      vertex 78.069 20.8139 0
      vertex 59.05 -2.065 0
      vertex 76.951 21.1772 0
    endloop
  endfacet
  facet normal 0 0 -1
    outer loop
      vertex 76.951 -21.1772 0
      vertex 59.05 -15.565 0
      vertex 59.05 -2.065 0
    endloop
  endfacet
  facet normal 0 0 -1
    outer loop
      vertex 77.5983 -25.542 0
      vertex 59.05 -15.565 0
      vertex 76.951 -22.3528 0
    endloop
  endfacet
  facet normal 0 0 -1
    outer loop
      vertex 77.5983 -25.542 0
      vertex 42.55 -15.565 0
      vertex 59.05 -15.565 0
    endloop
  endfacet
  facet normal 0 0 -1
    outer loop
      vertex 42.55 -15.565 0
      vertex 21.42 -7.565 0
      vertex 42.55 -2.065 0
    endloop
  endfacet
  facet normal 0 0 -1
    outer loop
      vertex 42.55 -15.565 0
      vertex -31.58 -7.565 0
      vertex 21.42 -7.565 0
    endloop
  endfacet
  facet normal 0 0 -1
    outer loop
      vertex -76.6018 -25.542 0
      vertex 42.55 -15.565 0
      vertex 77.5983 -25.542 0
    endloop
  endfacet
  facet normal 0 0 -1
    outer loop
      vertex -55.12 -4.565 0
      vertex -31.58 -7.565 0
      vertex -55.12 -15.565 0
    endloop
  endfacet
  facet normal 0 0 -1
    outer loop
      vertex 42.55 -15.565 0
      vertex -55.12 -15.565 0
      vertex -31.58 -7.565 0
    endloop
  endfacet
  facet normal -0 0 -1
    outer loop
      vertex 42.55 -15.565 0
      vertex -76.6018 -25.542 0
      vertex -55.12 -15.565 0
    endloop
  endfacet
  facet normal 0 0 -1
    outer loop
      vertex -76.76 -21.765 0
      vertex -65.12 -15.565 0
      vertex -76.6018 -25.542 0
    endloop
  endfacet
  facet normal -0 0 -1
    outer loop
      vertex -55.12 -15.565 0
      vertex -76.6018 -25.542 0
      vertex -65.12 -15.565 0
    endloop
  endfacet
  facet normal 0 0 -1
    outer loop
      vertex 78.069 22.7161 0
      vertex 81.0906 23.803 0
      vertex 78.76 21.765 0
    endloop
  endfacet
  facet normal -0 0 -1
    outer loop
      vertex 81.0906 23.803 0
      vertex 78.069 22.7161 0
      vertex 79.507 24.9989 0
    endloop
  endfacet
  facet normal 0 0 -1
    outer loop
      vertex 78.069 22.7161 0
      vertex 77.5983 25.542 0
      vertex 79.507 24.9989 0
    endloop
  endfacet
  facet normal 0 0 -1
    outer loop
      vertex 76.951 22.3528 0
      vertex 77.5983 25.542 0
      vertex 78.069 22.7161 0
    endloop
  endfacet
  facet normal -0 0 -1
    outer loop
      vertex 76.951 21.1772 0
      vertex 59.05 -2.065 0
      vertex 76.951 22.3528 0
    endloop
  endfacet
  facet normal 0 0 -1
    outer loop
      vertex 42.55 -2.065 0
      vertex 76.951 22.3528 0
      vertex 59.05 -2.065 0
    endloop
  endfacet
  facet normal -0 0 -1
    outer loop
      vertex 76.951 22.3528 0
      vertex 42.55 -2.065 0
      vertex 77.5983 25.542 0
    endloop
  endfacet
  facet normal 0 0 -1
    outer loop
      vertex 21.42 8.435 0
      vertex 42.55 -2.065 0
      vertex 21.42 -7.565 0
    endloop
  endfacet
  facet normal 0 0 -1
    outer loop
      vertex 42.55 -2.065 0
      vertex 21.42 8.435 0
      vertex 77.5983 25.542 0
    endloop
  endfacet
  facet normal 0 0 -1
    outer loop
      vertex -76.6018 25.542 0
      vertex 21.42 8.435 0
      vertex -31.58 8.435 0
    endloop
  endfacet
  facet normal 0 0 -1
    outer loop
      vertex -31.58 -7.565 0
      vertex -55.12 -4.565 0
      vertex -31.58 8.435 0
    endloop
  endfacet
  facet normal 0 0 -1
    outer loop
      vertex -76.76 21.765 0
      vertex -55.12 -4.565 0
      vertex -65.12 -4.565 0
    endloop
  endfacet
  facet normal 0 0 -1
    outer loop
      vertex 21.42 8.435 0
      vertex -76.6018 25.542 0
      vertex 77.5983 25.542 0
    endloop
  endfacet
  facet normal 0 0 -1
    outer loop
      vertex -76.76 21.765 0
      vertex -31.58 8.435 0
      vertex -55.12 -4.565 0
    endloop
  endfacet
  facet normal 0 0 -1
    outer loop
      vertex -77.451 -20.8139 0
      vertex -65.12 -15.565 0
      vertex -76.76 -21.765 0
    endloop
  endfacet
  facet normal -0 0 -1
    outer loop
      vertex -65.12 -15.565 0
      vertex -77.451 -20.8139 0
      vertex -65.12 -4.565 0
    endloop
  endfacet
  facet normal 0 0 -1
    outer loop
      vertex -76.6018 -25.542 0
      vertex -77.451 -22.7161 0
      vertex -76.76 -21.765 0
    endloop
  endfacet
  facet normal 0 0 -1
    outer loop
      vertex -78.5778 -25.3589 0
      vertex -77.451 -22.7161 0
      vertex -76.6018 -25.542 0
    endloop
  endfacet
  facet normal 0 0 -1
    outer loop
      vertex -82.4081 -21.1572 0
      vertex -78.569 -21.1772 0
      vertex -78.569 -22.3528 0
    endloop
  endfacet
  facet normal 0 0 -1
    outer loop
      vertex -65.12 -4.565 0
      vertex -82.4081 21.1572 0
      vertex -77.451 20.8139 0
    endloop
  endfacet
  facet normal 0 0 -1
    outer loop
      vertex -82.4081 -21.1572 0
      vertex -78.569 -22.3528 0
      vertex -78.5778 -25.3589 0
    endloop
  endfacet
  facet normal -0 0 -1
    outer loop
      vertex -77.451 -22.7161 0
      vertex -78.5778 -25.3589 0
      vertex -78.569 -22.3528 0
    endloop
  endfacet
  facet normal -0.445739 -0.895163 0
    outer loop
      vertex -80.3542 -24.4743 0
      vertex -78.5778 -25.3589 1.6
      vertex -80.3542 -24.4743 1.6
    endloop
  endfacet
  facet normal -0.445739 -0.895163 -0
    outer loop
      vertex -78.5778 -25.3589 1.6
      vertex -80.3542 -24.4743 0
      vertex -78.5778 -25.3589 0
    endloop
  endfacet
  facet normal -0.0922681 -0.995734 0
    outer loop
      vertex -78.5778 -25.3589 0
      vertex -76.6018 -25.542 1.6
      vertex -78.5778 -25.3589 1.6
    endloop
  endfacet
  facet normal -0.0922681 -0.995734 -0
    outer loop
      vertex -76.6018 -25.542 1.6
      vertex -78.5778 -25.3589 0
      vertex -76.6018 -25.542 0
    endloop
  endfacet
  facet normal 0.273662 0.961826 -0
    outer loop
      vertex 79.507 24.9989 0
      vertex 77.5983 25.542 1.6
      vertex 79.507 24.9989 1.6
    endloop
  endfacet
  facet normal 0.273662 0.961826 0
    outer loop
      vertex 77.5983 25.542 1.6
      vertex 79.507 24.9989 0
      vertex 77.5983 25.542 0
    endloop
  endfacet
  facet normal -0.739009 -0.673695 0
    outer loop
      vertex -80.3542 -24.4743 0
      vertex -81.6912 -23.0077 1.6
      vertex -81.6912 -23.0077 0
    endloop
  endfacet
  facet normal -0.739009 -0.673695 0
    outer loop
      vertex -81.6912 -23.0077 1.6
      vertex -80.3542 -24.4743 0
      vertex -80.3542 -24.4743 1.6
    endloop
  endfacet
  facet normal -0.739009 0.673695 0
    outer loop
      vertex -81.6912 23.0077 0
      vertex -80.3542 24.4743 1.6
      vertex -80.3542 24.4743 0
    endloop
  endfacet
  facet normal -0.739009 0.673695 0
    outer loop
      vertex -80.3542 24.4743 1.6
      vertex -81.6912 23.0077 0
      vertex -81.6912 23.0077 1.6
    endloop
  endfacet
  facet normal -0.445738 0.895163 0
    outer loop
      vertex -78.5778 25.3589 0
      vertex -80.3542 24.4743 1.6
      vertex -78.5778 25.3589 1.6
    endloop
  endfacet
  facet normal -0.445738 0.895163 0
    outer loop
      vertex -80.3542 24.4743 1.6
      vertex -78.5778 25.3589 0
      vertex -80.3542 24.4743 0
    endloop
  endfacet
  facet normal 0.850217 0.526432 0
    outer loop
      vertex 82.1353 22.1157 1.6
      vertex 81.0906 23.803 0
      vertex 81.0906 23.803 1.6
    endloop
  endfacet
  facet normal 0.850217 0.526432 0
    outer loop
      vertex 81.0906 23.803 0
      vertex 82.1353 22.1157 1.6
      vertex 82.1353 22.1157 0
    endloop
  endfacet
  facet normal 0.982973 0.183752 0
    outer loop
      vertex 82.5 20.165 1.6
      vertex 82.1353 22.1157 0
      vertex 82.1353 22.1157 1.6
    endloop
  endfacet
  facet normal 0.982973 0.183752 0
    outer loop
      vertex 82.1353 22.1157 0
      vertex 82.5 20.165 1.6
      vertex 82.5 20.165 0
    endloop
  endfacet
  facet normal 0.602636 0.798016 -0
    outer loop
      vertex 81.0906 23.803 0
      vertex 79.507 24.9989 1.6
      vertex 81.0906 23.803 1.6
    endloop
  endfacet
  facet normal 0.602636 0.798016 0
    outer loop
      vertex 79.507 24.9989 1.6
      vertex 81.0906 23.803 0
      vertex 79.507 24.9989 0
    endloop
  endfacet
  facet normal -0.809016 -0.587787 0
    outer loop
      vertex 78.76 21.765 0
      vertex 78.069 22.7161 1.6
      vertex 78.069 22.7161 0
    endloop
  endfacet
  facet normal -0.809016 -0.587787 0
    outer loop
      vertex 78.069 22.7161 1.6
      vertex 78.76 21.765 0
      vertex 78.76 21.765 1.6
    endloop
  endfacet
  facet normal 1 -0 0
    outer loop
      vertex 76.951 21.1772 1.6
      vertex 76.951 22.3528 0
      vertex 76.951 22.3528 1.6
    endloop
  endfacet
  facet normal 1 0 0
    outer loop
      vertex 76.951 22.3528 0
      vertex 76.951 21.1772 1.6
      vertex 76.951 21.1772 0
    endloop
  endfacet
  facet normal 0.309017 -0.951056 0
    outer loop
      vertex 76.951 22.3528 0
      vertex 78.069 22.7161 1.6
      vertex 76.951 22.3528 1.6
    endloop
  endfacet
  facet normal 0.309017 -0.951056 0
    outer loop
      vertex 78.069 22.7161 1.6
      vertex 76.951 22.3528 0
      vertex 78.069 22.7161 0
    endloop
  endfacet
  facet normal 0.309019 0.951056 -0
    outer loop
      vertex 78.069 20.8139 0
      vertex 76.951 21.1772 1.6
      vertex 78.069 20.8139 1.6
    endloop
  endfacet
  facet normal 0.309019 0.951056 0
    outer loop
      vertex 76.951 21.1772 1.6
      vertex 78.069 20.8139 0
      vertex 76.951 21.1772 0
    endloop
  endfacet
  facet normal -0.809016 0.587787 0
    outer loop
      vertex 78.069 20.8139 0
      vertex 78.76 21.765 1.6
      vertex 78.76 21.765 0
    endloop
  endfacet
  facet normal -0.809016 0.587787 0
    outer loop
      vertex 78.76 21.765 1.6
      vertex 78.069 20.8139 0
      vertex 78.069 20.8139 1.6
    endloop
  endfacet
  facet normal -0.809019 -0.587783 0
    outer loop
      vertex -76.76 21.765 0
      vertex -77.451 22.7161 1.6
      vertex -77.451 22.7161 0
    endloop
  endfacet
  facet normal -0.809019 -0.587783 0
    outer loop
      vertex -77.451 22.7161 1.6
      vertex -76.76 21.765 0
      vertex -76.76 21.765 1.6
    endloop
  endfacet
  facet normal 1 -0 0
    outer loop
      vertex -78.569 21.1772 1.6
      vertex -78.569 22.3528 0
      vertex -78.569 22.3528 1.6
    endloop
  endfacet
  facet normal 1 0 0
    outer loop
      vertex -78.569 22.3528 0
      vertex -78.569 21.1772 1.6
      vertex -78.569 21.1772 0
    endloop
  endfacet
  facet normal 0.309017 -0.951056 0
    outer loop
      vertex -78.569 22.3528 0
      vertex -77.451 22.7161 1.6
      vertex -78.569 22.3528 1.6
    endloop
  endfacet
  facet normal 0.309017 -0.951056 0
    outer loop
      vertex -77.451 22.7161 1.6
      vertex -78.569 22.3528 0
      vertex -77.451 22.7161 0
    endloop
  endfacet
  facet normal 0.309019 0.951056 -0
    outer loop
      vertex -77.451 20.8139 0
      vertex -78.569 21.1772 1.6
      vertex -77.451 20.8139 1.6
    endloop
  endfacet
  facet normal 0.309019 0.951056 0
    outer loop
      vertex -78.569 21.1772 1.6
      vertex -77.451 20.8139 0
      vertex -78.569 21.1772 0
    endloop
  endfacet
  facet normal -0.809019 0.587783 0
    outer loop
      vertex -77.451 20.8139 0
      vertex -76.76 21.765 1.6
      vertex -76.76 21.765 0
    endloop
  endfacet
  facet normal -0.809019 0.587783 0
    outer loop
      vertex -76.76 21.765 1.6
      vertex -77.451 20.8139 0
      vertex -77.451 20.8139 1.6
    endloop
  endfacet
  facet normal -0.809019 -0.587783 0
    outer loop
      vertex -76.76 -21.765 0
      vertex -77.451 -20.8139 1.6
      vertex -77.451 -20.8139 0
    endloop
  endfacet
  facet normal -0.809019 -0.587783 0
    outer loop
      vertex -77.451 -20.8139 1.6
      vertex -76.76 -21.765 0
      vertex -76.76 -21.765 1.6
    endloop
  endfacet
  facet normal 1 -0 0
    outer loop
      vertex -78.569 -22.3528 1.6
      vertex -78.569 -21.1772 0
      vertex -78.569 -21.1772 1.6
    endloop
  endfacet
  facet normal 1 0 0
    outer loop
      vertex -78.569 -21.1772 0
      vertex -78.569 -22.3528 1.6
      vertex -78.569 -22.3528 0
    endloop
  endfacet
  facet normal 0.309019 -0.951056 0
    outer loop
      vertex -78.569 -21.1772 0
      vertex -77.451 -20.8139 1.6
      vertex -78.569 -21.1772 1.6
    endloop
  endfacet
  facet normal 0.309019 -0.951056 0
    outer loop
      vertex -77.451 -20.8139 1.6
      vertex -78.569 -21.1772 0
      vertex -77.451 -20.8139 0
    endloop
  endfacet
  facet normal 0.309017 0.951056 -0
    outer loop
      vertex -77.451 -22.7161 0
      vertex -78.569 -22.3528 1.6
      vertex -77.451 -22.7161 1.6
    endloop
  endfacet
  facet normal 0.309017 0.951056 0
    outer loop
      vertex -78.569 -22.3528 1.6
      vertex -77.451 -22.7161 0
      vertex -78.569 -22.3528 0
    endloop
  endfacet
  facet normal -0.809019 0.587783 0
    outer loop
      vertex -77.451 -22.7161 0
      vertex -76.76 -21.765 1.6
      vertex -76.76 -21.765 0
    endloop
  endfacet
  facet normal -0.809019 0.587783 0
    outer loop
      vertex -76.76 -21.765 1.6
      vertex -77.451 -22.7161 0
      vertex -77.451 -22.7161 1.6
    endloop
  endfacet
  facet normal -0.809016 -0.587787 0
    outer loop
      vertex 78.76 -21.765 0
      vertex 78.069 -20.8139 1.6
      vertex 78.069 -20.8139 0
    endloop
  endfacet
  facet normal -0.809016 -0.587787 0
    outer loop
      vertex 78.069 -20.8139 1.6
      vertex 78.76 -21.765 0
      vertex 78.76 -21.765 1.6
    endloop
  endfacet
  facet normal 1 -0 0
    outer loop
      vertex 76.951 -22.3528 1.6
      vertex 76.951 -21.1772 0
      vertex 76.951 -21.1772 1.6
    endloop
  endfacet
  facet normal 1 0 0
    outer loop
      vertex 76.951 -21.1772 0
      vertex 76.951 -22.3528 1.6
      vertex 76.951 -22.3528 0
    endloop
  endfacet
  facet normal 0.309019 -0.951056 0
    outer loop
      vertex 76.951 -21.1772 0
      vertex 78.069 -20.8139 1.6
      vertex 76.951 -21.1772 1.6
    endloop
  endfacet
  facet normal 0.309019 -0.951056 0
    outer loop
      vertex 78.069 -20.8139 1.6
      vertex 76.951 -21.1772 0
      vertex 78.069 -20.8139 0
    endloop
  endfacet
  facet normal 0.309017 0.951056 -0
    outer loop
      vertex 78.069 -22.7161 0
      vertex 76.951 -22.3528 1.6
      vertex 78.069 -22.7161 1.6
    endloop
  endfacet
  facet normal 0.309017 0.951056 0
    outer loop
      vertex 76.951 -22.3528 1.6
      vertex 78.069 -22.7161 0
      vertex 76.951 -22.3528 0
    endloop
  endfacet
  facet normal -0.809016 0.587787 0
    outer loop
      vertex 78.069 -22.7161 0
      vertex 78.76 -21.765 1.6
      vertex 78.76 -21.765 0
    endloop
  endfacet
  facet normal -0.809016 0.587787 0
    outer loop
      vertex 78.76 -21.765 1.6
      vertex 78.069 -22.7161 0
      vertex 78.069 -22.7161 1.6
    endloop
  endfacet
  facet normal -1 0 0
    outer loop
      vertex 59.05 -15.565 0
      vertex 59.05 -2.065 1.6
      vertex 59.05 -2.065 0
    endloop
  endfacet
  facet normal -1 -0 0
    outer loop
      vertex 59.05 -2.065 1.6
      vertex 59.05 -15.565 0
      vertex 59.05 -15.565 1.6
    endloop
  endfacet
  facet normal 0 -1 0
    outer loop
      vertex 42.55 -2.065 0
      vertex 59.05 -2.065 1.6
      vertex 42.55 -2.065 1.6
    endloop
  endfacet
  facet normal 0 -1 -0
    outer loop
      vertex 59.05 -2.065 1.6
      vertex 42.55 -2.065 0
      vertex 59.05 -2.065 0
    endloop
  endfacet
  facet normal 1 -0 0
    outer loop
      vertex 42.55 -15.565 1.6
      vertex 42.55 -2.065 0
      vertex 42.55 -2.065 1.6
    endloop
  endfacet
  facet normal 1 0 0
    outer loop
      vertex 42.55 -2.065 0
      vertex 42.55 -15.565 1.6
      vertex 42.55 -15.565 0
    endloop
  endfacet
  facet normal 0 1 -0
    outer loop
      vertex 59.05 -15.565 0
      vertex 42.55 -15.565 1.6
      vertex 59.05 -15.565 1.6
    endloop
  endfacet
  facet normal 0 1 0
    outer loop
      vertex 42.55 -15.565 1.6
      vertex 59.05 -15.565 0
      vertex 42.55 -15.565 0
    endloop
  endfacet
  facet normal -1 0 0
    outer loop
      vertex -55.12 -15.565 0
      vertex -55.12 -4.565 1.6
      vertex -55.12 -4.565 0
    endloop
  endfacet
  facet normal -1 -0 0
    outer loop
      vertex -55.12 -4.565 1.6
      vertex -55.12 -15.565 0
      vertex -55.12 -15.565 1.6
    endloop
  endfacet
  facet normal 0 -1 0
    outer loop
      vertex -65.12 -4.565 0
      vertex -55.12 -4.565 1.6
      vertex -65.12 -4.565 1.6
    endloop
  endfacet
  facet normal 0 -1 -0
    outer loop
      vertex -55.12 -4.565 1.6
      vertex -65.12 -4.565 0
      vertex -55.12 -4.565 0
    endloop
  endfacet
  facet normal 1 -0 0
    outer loop
      vertex -65.12 -15.565 1.6
      vertex -65.12 -4.565 0
      vertex -65.12 -4.565 1.6
    endloop
  endfacet
  facet normal 1 0 0
    outer loop
      vertex -65.12 -4.565 0
      vertex -65.12 -15.565 1.6
      vertex -65.12 -15.565 0
    endloop
  endfacet
  facet normal 0 1 -0
    outer loop
      vertex -55.12 -15.565 0
      vertex -65.12 -15.565 1.6
      vertex -55.12 -15.565 1.6
    endloop
  endfacet
  facet normal 0 1 0
    outer loop
      vertex -65.12 -15.565 1.6
      vertex -55.12 -15.565 0
      vertex -65.12 -15.565 0
    endloop
  endfacet
  facet normal -1 0 0
    outer loop
      vertex 21.42 -7.565 0
      vertex 21.42 8.435 1.6
      vertex 21.42 8.435 0
    endloop
  endfacet
  facet normal -1 -0 0
    outer loop
      vertex 21.42 8.435 1.6
      vertex 21.42 -7.565 0
      vertex 21.42 -7.565 1.6
    endloop
  endfacet
  facet normal 0 -1 0
    outer loop
      vertex -31.58 8.435 0
      vertex 21.42 8.435 1.6
      vertex -31.58 8.435 1.6
    endloop
  endfacet
  facet normal 0 -1 -0
    outer loop
      vertex 21.42 8.435 1.6
      vertex -31.58 8.435 0
      vertex 21.42 8.435 0
    endloop
  endfacet
  facet normal 1 -0 0
    outer loop
      vertex -31.58 -7.565 1.6
      vertex -31.58 8.435 0
      vertex -31.58 8.435 1.6
    endloop
  endfacet
  facet normal 1 0 0
    outer loop
      vertex -31.58 8.435 0
      vertex -31.58 -7.565 1.6
      vertex -31.58 -7.565 0
    endloop
  endfacet
  facet normal 0 1 -0
    outer loop
      vertex 21.42 -7.565 0
      vertex -31.58 -7.565 1.6
      vertex 21.42 -7.565 1.6
    endloop
  endfacet
  facet normal 0 1 0
    outer loop
      vertex -31.58 -7.565 1.6
      vertex 21.42 -7.565 0
      vertex -31.58 -7.565 0
    endloop
  endfacet
endsolid OpenSCAD_Model
